<svg width="36" height="36" viewBox="0 0 36 36" fill="none" xmlns="http://www.w3.org/2000/svg">
<g id="Frame">
<path id="Vector" d="M29.925 15.827C31.0781 14.6457 31.7531 13.127 31.7531 11.4676C31.7531 7.8957 28.575 4.9707 24.6938 4.9707C24.5813 4.9707 24.4688 4.99883 24.3562 4.99883C24.4688 5.13945 24.6375 5.33633 24.75 5.50508C25.3125 6.2082 25.7063 6.91133 25.9875 7.75508C27.675 8.26133 29.5594 9.72383 29.5594 11.4395C29.5594 12.9582 28.575 14.3645 27.0844 14.9832C26.5219 15.1801 26.1281 15.6301 26.1281 16.1926C26.1281 16.7551 26.55 17.2332 27.1406 17.402L27.4219 17.4582C31.1906 18.3301 33.8062 21.3957 33.8062 24.9957V26.0082H31.7812C31.9781 26.852 32.0625 27.4145 32.0625 28.3145H34.5938C35.3812 28.3145 36 27.7238 36 27.0207V25.0238C36 21.0582 33.6094 17.5707 29.925 15.827ZM8.83125 17.4863L9.1125 17.4301C9.70312 17.2613 10.125 16.7832 10.125 16.2207C10.125 15.6863 9.73125 15.2082 9.16875 15.0113C7.65 14.3926 6.69375 12.9863 6.69375 11.4676C6.69375 9.75195 8.325 8.28945 10.0125 7.7832C10.3219 6.93945 10.6875 6.12383 11.2781 5.44883C11.3906 5.3082 11.5594 5.16758 11.6438 5.02695C11.5312 5.02695 11.4187 4.99883 11.3063 4.99883C7.425 4.99883 4.24688 7.8957 4.24688 11.4957C4.24688 13.127 4.92188 14.6738 6.075 15.8551C2.39062 17.5707 0 21.0582 0 25.0238V27.0207C0 27.752 0.61875 28.3145 1.40625 28.3145H3.9375C3.9375 27.4145 4.05 26.852 4.21875 26.0082H2.44687V24.9957C2.44687 21.452 5.0625 18.3582 8.83125 17.4863Z" fill="#3B6CF4"/>
<path id="Vector_2" d="M22.8092 16.5031C24.6092 15.0687 25.7623 12.875 25.7623 10.4C25.7623 6.09687 22.3029 2.60938 18.0561 2.60938C13.7811 2.60938 10.3217 6.09687 10.3217 10.3719C10.3217 12.8469 11.4748 15.0687 13.2748 16.475C8.52168 18.3875 5.1748 23.0562 5.1748 28.5125V31.1C5.1748 31.8031 5.7373 32.3937 6.46855 32.3937H29.6154C30.3186 32.3937 30.9092 31.8031 30.9092 31.1V28.5125C30.9092 23.0844 27.5342 18.4156 22.8092 16.5031ZM12.9373 10.3719C12.9373 7.53125 15.2436 5.225 18.0561 5.225C20.8686 5.225 23.1748 7.53125 23.1748 10.3719C23.1748 13.2125 20.8686 15.5187 18.0561 15.5187C15.2154 15.5187 12.9373 13.2125 12.9373 10.3719ZM28.0686 29.7781H8.01543V28.5125C8.01543 22.9437 12.5154 18.3875 18.0561 18.3875C23.5967 18.3875 28.0686 22.9156 28.0686 28.5125V29.7781Z" fill="#3B6CF4"/>
</g>
</svg>
