<svg width="34" height="36" viewBox="0 0 34 36" fill="none" xmlns="http://www.w3.org/2000/svg">
<g id="_&#229;&#155;&#190;&#229;&#177;&#130;_1" clip-path="url(#clip0_1397_3486)">
<path id="Vector" d="M31.0814 0.949219H2.91829C1.84375 0.949219 0.972656 1.79797 0.972656 2.84495V23.1198C0.972656 24.1668 1.84375 25.0156 2.91829 25.0156H31.0814C32.1559 25.0156 33.027 24.1668 33.027 23.1198V2.84495C33.027 1.79797 32.1559 0.949219 31.0814 0.949219Z" stroke="#3B6CF4" stroke-width="2" stroke-miterlimit="10"/>
<path id="Vector_2" d="M32.0544 28.6816H1.94572C1.40845 28.6816 0.9729 29.106 0.9729 29.6295V34.1034C0.9729 34.6269 1.40845 35.0513 1.94572 35.0513H32.0544C32.5917 35.0513 33.0273 34.6269 33.0273 34.1034V29.6295C33.0273 29.106 32.5917 28.6816 32.0544 28.6816Z" stroke="#3B6CF4" stroke-width="2" stroke-miterlimit="10"/>
<path id="Vector_3" d="M6.53737 33.2226C7.30567 33.2226 7.9285 32.6158 7.9285 31.8672C7.9285 31.1186 7.30567 30.5117 6.53737 30.5117C5.76907 30.5117 5.14624 31.1186 5.14624 31.8672C5.14624 32.6158 5.76907 33.2226 6.53737 33.2226Z" fill="#3B6CF4"/>
<path id="Vector_4" d="M11.5766 33.2226C12.3449 33.2226 12.9677 32.6158 12.9677 31.8672C12.9677 31.1186 12.3449 30.5117 11.5766 30.5117C10.8083 30.5117 10.1854 31.1186 10.1854 31.8672C10.1854 32.6158 10.8083 33.2226 11.5766 33.2226Z" fill="#3B6CF4"/>
<path id="Vector_5" d="M16.606 33.2226C17.3743 33.2226 17.9971 32.6158 17.9971 31.8672C17.9971 31.1186 17.3743 30.5117 16.606 30.5117C15.8377 30.5117 15.2148 31.1186 15.2148 31.8672C15.2148 32.6158 15.8377 33.2226 16.606 33.2226Z" fill="#3B6CF4"/>
<g id="Group">
<path id="Vector_6" d="M11.3042 19.7067C8.9013 19.7067 7.04321 18.4271 7.04321 16.3513H9.15423C9.24178 17.3086 9.93248 18.0859 11.3042 18.0859C12.6758 18.0859 13.4735 17.356 13.4735 16.3608C13.4735 13.5266 7.08213 15.3655 7.08213 11.0432C7.08213 8.98636 8.7651 7.69727 11.2263 7.69727C13.5319 7.69727 15.1565 8.8821 15.3316 10.8916H13.1525C13.0844 10.0954 12.3743 9.37499 11.129 9.33708C9.98112 9.29916 9.10559 9.83945 9.10559 10.9769C9.10559 13.6309 15.4775 11.9721 15.4775 16.2565C15.4775 18.0101 14.0086 19.6973 11.3236 19.6973L11.3042 19.7067Z" fill="#3B6CF4"/>
<path id="Vector_7" d="M25.6726 7.25195V8.93916H19.8746V12.2946C20.3416 11.688 21.3631 11.1856 22.4915 11.1856C25.5948 11.1856 26.5482 13.432 26.5482 15.2899C26.5482 17.7354 25.1084 19.5932 22.1802 19.5932C19.5828 19.5932 18.0749 18.1903 17.7831 16.2662H19.7093C19.9719 17.3088 20.8669 17.9913 22.1997 17.9913C23.8924 17.9913 24.6609 16.8633 24.6609 15.3373C24.6609 13.7354 23.8437 12.8254 22.1997 12.8254C21.042 12.8254 20.2638 13.451 19.933 14.361H18.0652V7.25195H25.6824H25.6726Z" fill="#3B6CF4"/>
</g>
</g>
<defs>
<clipPath id="clip0_1397_3486">
<rect width="34" height="36" fill="white"/>
</clipPath>
</defs>
</svg>
