<svg width="36" height="18" viewBox="0 0 36 18" fill="none" xmlns="http://www.w3.org/2000/svg">
<g id="_&#229;&#155;&#190;&#229;&#177;&#130;_1" clip-path="url(#clip0_1397_3459)">
<path id="Vector" d="M8.54976 18C3.83232 18 0 13.9659 0 9C0 4.03406 3.83232 0 8.54976 0C10.0723 0 11.5872 0.442286 13.0656 1.31863C14.2886 2.04274 15.4733 3.07131 16.4928 4.28297C16.9344 4.81371 16.8979 5.62423 16.4026 6.09943C15.9072 6.57257 15.1507 6.53349 14.7072 6.00274C12.8774 3.82423 10.6349 2.57143 8.54976 2.57143C5.15904 2.57143 2.4 5.45554 2.4 9C2.4 12.5445 5.15904 15.4286 8.54976 15.4286C13.5744 15.4286 16.8979 8.49394 16.9267 8.42194C17.0995 8.05989 20.9395 0 27.4502 0C32.1677 0 36 4.03406 36 9C36 13.9659 32.1677 18 27.4502 18C25.9354 18 24.4128 17.5577 22.9344 16.6814C21.7114 15.9573 20.5267 14.9287 19.5072 13.717C19.0656 13.1863 19.1021 12.3758 19.5974 11.9006C20.0928 11.4254 20.8493 11.4665 21.2928 11.9973C23.1226 14.1758 25.3651 15.4286 27.4502 15.4286C30.841 15.4286 33.6 12.5445 33.6 9C33.6 5.45554 30.839 2.57143 27.4502 2.57143C22.4256 2.57143 19.1021 9.50606 19.0733 9.57806C18.9005 9.94011 15.0605 18 8.55168 18H8.54976Z" fill="#3B6CF4"/>
</g>
<defs>
<clipPath id="clip0_1397_3459">
<rect width="36" height="18" fill="white"/>
</clipPath>
</defs>
</svg>
