<svg width="38" height="36" viewBox="0 0 38 36" fill="none" xmlns="http://www.w3.org/2000/svg">
<g id="_&#229;&#155;&#190;&#229;&#177;&#130;_1" clip-path="url(#clip0_1397_3464)">
<path id="Vector" d="M37.0382 31.5155C37.0382 32.0054 36.9516 32.4671 36.7785 32.9005C36.6054 33.3339 36.365 33.7013 36.0476 34.0311C35.7302 34.3514 35.3551 34.6058 34.9319 34.7942C34.5087 34.9827 34.0471 35.0675 33.5373 35.0675H4.69348C4.19335 35.0675 3.71246 34.9733 3.26043 34.7942C2.80839 34.6152 2.41406 34.3608 2.06782 34.0311C1.72157 33.7013 1.45227 33.3339 1.2503 32.9005C1.04833 32.4765 0.952148 32.0149 0.952148 31.5155V12.0976C0.952148 11.1083 1.29839 10.2792 2.00049 9.59142C2.70259 8.90364 3.55858 8.56446 4.55883 8.56446H33.4027C34.4125 8.56446 35.2589 8.90364 35.961 9.59142C36.6631 10.2792 37.0093 11.1177 37.0093 12.0976V17.3925H27.9878C26.978 17.3925 26.1316 17.7317 25.4295 18.4006C24.7274 19.079 24.3812 19.9081 24.3812 20.8879C24.41 21.5663 24.5543 22.1599 24.814 22.678C25.0255 23.1209 25.3814 23.5166 25.8623 23.884C26.3528 24.2515 27.0645 24.4305 27.9878 24.4305H37.0093V31.5155H37.0382ZM31.6234 5.94525L16.1579 5.93583C17.389 5.314 18.5431 4.71102 19.63 4.1363C20.5821 3.64638 21.5247 3.15645 22.4576 2.66653C23.3905 2.1766 24.1119 1.79974 24.6408 1.53593C25.4391 1.11196 26.1412 0.914106 26.7664 0.951793C27.3915 0.989479 27.9205 1.09312 28.3533 1.27213C28.8534 1.51709 29.2862 1.83742 29.6517 2.24255L31.6234 5.94525ZM28.3918 20.8974C28.3918 20.4545 28.5457 20.0871 28.8534 19.7856C29.1612 19.4841 29.5459 19.3334 29.9883 19.3334C30.4308 19.3334 30.8155 19.4841 31.1232 19.7856C31.431 20.0871 31.5849 20.464 31.5849 20.8974C31.5849 21.3308 31.431 21.717 31.1232 22.028C30.8155 22.3389 30.4308 22.499 29.9883 22.499C29.5459 22.499 29.1612 22.3389 28.8534 22.028C28.5457 21.717 28.3918 21.3402 28.3918 20.8974Z" stroke="#3B6CF4" stroke-width="2" stroke-miterlimit="10"/>
</g>
<defs>
<clipPath id="clip0_1397_3464">
<rect width="38" height="36" fill="white"/>
</clipPath>
</defs>
</svg>
