<svg width="36" height="36" viewBox="0 0 36 36" fill="none" xmlns="http://www.w3.org/2000/svg">
<g id="_&#229;&#155;&#190;&#229;&#177;&#130;_1" clip-path="url(#clip0_1397_3476)">
<path id="Vector" d="M4.95761 18.7009V15.9791C4.96714 15.6463 4.80506 15.333 4.51905 15.1665L2.04023 13.649C1.554 13.3651 0.953369 13.7175 0.953369 14.2952V27.7572C0.953369 28.0314 1.09638 28.2761 1.32519 28.4132L12.6419 34.9044C13.1282 35.1785 13.7288 34.826 13.7288 34.2484V21.0017C13.7288 20.7374 13.5858 20.4828 13.3665 20.3555L10.4777 18.7401C9.86756 18.3974 9.11439 18.8478 9.11439 19.5625V20.6786C9.10485 21.4031 8.33261 21.8535 7.72244 21.4815L5.86333 20.3457C5.30083 20.0031 4.95761 19.3765 4.95761 18.7107V18.7009Z" stroke="#3B6CF4" stroke-width="2" stroke-miterlimit="10"/>
<path id="Vector_2" d="M29.6028 14.2952V27.7768C29.6028 28.0509 29.4598 28.2957 29.231 28.4328L17.8952 34.9239C17.409 35.1981 16.8083 34.8456 16.8083 34.268V21.0017C16.8083 20.7374 16.9514 20.4828 17.1706 20.3555L28.5064 13.649C28.9927 13.3651 29.5933 13.7175 29.5933 14.2952H29.6028Z" stroke="#3B6CF4" stroke-width="2" stroke-miterlimit="10"/>
<path id="Vector_3" d="M3.80402 9.9179L14.3104 3.72046C14.5201 3.59318 14.7775 3.59318 14.9873 3.72046L18.9343 5.97229C19.4015 6.23664 19.4015 6.92198 18.9439 7.20591L8.44703 13.4621C8.23728 13.5894 7.97033 13.5894 7.76059 13.4621L3.80402 11.1417C3.34639 10.8676 3.33686 10.1822 3.80402 9.9179Z" stroke="#3B6CF4" stroke-width="2" stroke-miterlimit="10"/>
<path id="Vector_4" d="M11.1737 14.5683L21.6515 8.47854C21.8612 8.36106 22.1186 8.35126 22.3284 8.47854L26.2659 10.701C26.733 10.9654 26.733 11.6409 26.2754 11.915L15.8072 18.0733C15.5975 18.2006 15.34 18.2006 15.1208 18.0733L11.1737 15.7921C10.7161 15.5278 10.7161 14.8522 11.1737 14.5879V14.5683Z" stroke="#3B6CF4" stroke-width="2" stroke-miterlimit="10"/>
<path id="Vector_5" d="M28.2873 0.980469L34.8085 1.89099C34.961 1.91057 35.0563 2.04764 35.0373 2.20429C35.0373 2.27283 34.9991 2.33157 34.9515 2.38052L33.3498 3.81974C33.2449 3.90786 33.2258 4.0645 33.3021 4.18199C33.9409 5.18063 36.5722 9.78221 33.6358 13.4439C33.5405 13.5614 33.3688 13.5907 33.2544 13.4928C33.1782 13.4243 33.14 13.3264 33.1591 13.2187C33.3402 12.2201 33.3307 10.6144 32.158 8.78357C31.6813 8.04927 31.1474 7.34435 30.5754 6.67859C30.4801 6.56111 30.3085 6.55131 30.1845 6.64922L28.4207 8.2255C28.3063 8.32341 28.1347 8.31362 28.0394 8.19613C27.9917 8.14718 27.9727 8.07865 27.9727 8.01011V1.25461C27.9727 1.09796 28.0966 0.980469 28.2396 0.980469C28.2491 0.980469 28.2682 0.980469 28.2777 0.980469H28.2873Z" stroke="#3B6CF4" stroke-width="2" stroke-miterlimit="10"/>
</g>
<defs>
<clipPath id="clip0_1397_3476">
<rect width="36" height="36" fill="white"/>
</clipPath>
</defs>
</svg>
