<svg width="26" height="26" viewBox="0 0 26 26" fill="none" xmlns="http://www.w3.org/2000/svg">
<g id="Frame" clip-path="url(#clip0_1397_1406)">
<path id="Vector" d="M0.00927734 2.38086C0.00927734 1.06786 1.07713 0 2.39013 0H23.6191C24.9321 0 26 1.06786 26 2.38086V7.56971C26 8.08043 25.8347 8.57629 25.5301 8.98486C25.8347 9.39343 26 9.88743 26 10.4037V15.5926C26 16.1014 25.8347 16.5973 25.5301 17.0059C25.8347 17.4144 26 17.9103 26 18.421V23.6099C26 24.9229 24.9321 25.9907 23.6191 25.9907H2.39571C1.76441 25.9902 1.15912 25.7392 0.712729 25.2928C0.266338 24.8464 0.0153406 24.2412 0.0148488 23.6099V18.421C0.0148488 17.9103 0.180135 17.4144 0.484706 17.0059C0.180507 16.5974 0.0157749 16.1019 0.0148488 15.5926V10.4037C0.0148488 9.893 0.180135 9.39714 0.484706 8.98857C0.180507 8.58009 0.0157749 8.08459 0.0148488 7.57529L0.00927734 2.38086ZM1.94999 7.62914C1.96397 7.73648 2.01654 7.83506 2.09787 7.90648C2.1792 7.97791 2.28375 8.01729 2.39199 8.01729H23.621C23.868 8.01729 24.0667 7.81671 24.0667 7.57157V2.379C24.0667 2.26079 24.0197 2.14742 23.9362 2.06383C23.8526 1.98024 23.7392 1.93329 23.621 1.93329H2.39571C2.27765 1.93377 2.16456 1.98089 2.08108 2.06437C1.9976 2.14785 1.95048 2.26094 1.94999 2.379V7.56786L1.94813 7.62729L1.94999 7.62914ZM24.0686 10.4037C24.0688 10.3449 24.0574 10.2866 24.035 10.2321C24.0126 10.1777 23.9796 10.1283 23.938 10.0867C23.8964 10.0451 23.847 10.0121 23.7926 9.98971C23.7381 9.96731 23.6798 9.9559 23.621 9.95614H2.39571C2.27765 9.95663 2.16456 10.0037 2.08108 10.0872C1.9976 10.1707 1.95048 10.2838 1.94999 10.4019V15.587L1.94813 15.6464C1.96249 15.7536 2.01516 15.852 2.09642 15.9233C2.17767 15.9947 2.282 16.0342 2.39013 16.0346H23.6191C23.8661 16.0346 24.0648 15.834 24.0648 15.5889V10.4019L24.0686 10.4037ZM24.0686 18.421C24.0686 18.3023 24.0214 18.1885 23.9375 18.1045C23.8535 18.0206 23.7397 17.9734 23.621 17.9734H2.39571C2.27765 17.9739 2.16456 18.021 2.08108 18.1045C1.9976 18.188 1.95048 18.3011 1.94999 18.4191V23.6099L1.94813 23.6693C1.96253 23.7763 2.01527 23.8744 2.09656 23.9455C2.17786 24.0165 2.28217 24.0556 2.39013 24.0556H23.6191C23.6777 24.0556 23.7356 24.044 23.7897 24.0216C23.8438 23.9992 23.8929 23.9664 23.9343 23.925C23.9757 23.8836 24.0085 23.8345 24.0309 23.7804C24.0533 23.7264 24.0648 23.6684 24.0648 23.6099V18.421H24.0686ZM4.74871 3.88514H10.933C11.2005 3.89646 11.4533 4.01069 11.6385 4.20397C11.8238 4.39724 11.9272 4.65462 11.9272 4.92236C11.9272 5.19009 11.8238 5.44747 11.6385 5.64075C11.4533 5.83402 11.2005 5.94825 10.933 5.95957H4.74871C4.48121 5.94825 4.22844 5.83402 4.04317 5.64075C3.8579 5.44747 3.75446 5.19009 3.75446 4.92236C3.75446 4.65462 3.8579 4.39724 4.04317 4.20397C4.22844 4.01069 4.48121 3.89646 4.74871 3.88514ZM10.933 14.0326H4.74871C4.48121 14.0213 4.22844 13.907 4.04317 13.7137C3.8579 13.5205 3.75446 13.2631 3.75446 12.9954C3.75446 12.7276 3.8579 12.4702 4.04317 12.277C4.22844 12.0837 4.48121 11.9695 4.74871 11.9581H10.933C11.2005 11.9695 11.4533 12.0837 11.6385 12.277C11.8238 12.4702 11.9272 12.7276 11.9272 12.9954C11.9272 13.2631 11.8238 13.5205 11.6385 13.7137C11.4533 13.907 11.2005 14.0213 10.933 14.0326ZM10.933 22.1056H4.74871C4.48121 22.0943 4.22844 21.98 4.04317 21.7867C3.8579 21.5935 3.75446 21.3361 3.75446 21.0684C3.75446 20.8006 3.8579 20.5432 4.04317 20.35C4.22844 20.1567 4.48121 20.0425 4.74871 20.0311H10.933C11.2005 20.0425 11.4533 20.1567 11.6385 20.35C11.8238 20.5432 11.9272 20.8006 11.9272 21.0684C11.9272 21.3361 11.8238 21.5935 11.6385 21.7867C11.4533 21.98 11.2005 22.0943 10.933 22.1056ZM21.996 4.92143C21.996 5.07508 21.9657 5.22722 21.9069 5.36917C21.8481 5.51112 21.762 5.6401 21.6533 5.74874C21.5447 5.85739 21.4157 5.94357 21.2737 6.00237C21.1318 6.06117 20.9796 6.09143 20.826 6.09143C20.6723 6.09143 20.5202 6.06117 20.3783 6.00237C20.2363 5.94357 20.1073 5.85739 19.9987 5.74874C19.89 5.6401 19.8039 5.51112 19.7451 5.36917C19.6863 5.22722 19.656 5.07508 19.656 4.92143C19.656 4.61113 19.7793 4.31353 19.9987 4.09411C20.2181 3.8747 20.5157 3.75143 20.826 3.75143C21.1363 3.75143 21.4339 3.8747 21.6533 4.09411C21.8727 4.31353 21.996 4.61113 21.996 4.92143ZM18.096 4.92143C18.096 5.23173 17.9727 5.52933 17.7533 5.74874C17.5339 5.96816 17.2363 6.09143 16.926 6.09143C16.6157 6.09143 16.3181 5.96816 16.0987 5.74874C15.8793 5.52933 15.756 5.23173 15.756 4.92143C15.756 4.61113 15.8793 4.31353 16.0987 4.09411C16.3181 3.8747 16.6157 3.75143 16.926 3.75143C17.2363 3.75143 17.5339 3.8747 17.7533 4.09411C17.9727 4.31353 18.096 4.61113 18.096 4.92143ZM21.996 12.8514C21.996 13.0051 21.9657 13.1572 21.9069 13.2992C21.8481 13.4411 21.762 13.5701 21.6533 13.6787C21.5447 13.7874 21.4157 13.8736 21.2737 13.9324C21.1318 13.9912 20.9796 14.0214 20.826 14.0214C20.6723 14.0214 20.5202 13.9912 20.3783 13.9324C20.2363 13.8736 20.1073 13.7874 19.9987 13.6787C19.89 13.5701 19.8039 13.4411 19.7451 13.2992C19.6863 13.1572 19.656 13.0051 19.656 12.8514C19.656 12.5411 19.7793 12.2435 19.9987 12.0241C20.2181 11.8047 20.5157 11.6814 20.826 11.6814C21.1363 11.6814 21.4339 11.8047 21.6533 12.0241C21.8727 12.2435 21.996 12.5411 21.996 12.8514ZM18.096 12.8514C18.096 13.1617 17.9727 13.4593 17.7533 13.6787C17.5339 13.8982 17.2363 14.0214 16.926 14.0214C16.6157 14.0214 16.3181 13.8982 16.0987 13.6787C15.8793 13.4593 15.756 13.1617 15.756 12.8514C15.756 12.5411 15.8793 12.2435 16.0987 12.0241C16.3181 11.8047 16.6157 11.6814 16.926 11.6814C17.2363 11.6814 17.5339 11.8047 17.7533 12.0241C17.9727 12.2435 18.096 12.5411 18.096 12.8514ZM21.996 20.9114C21.996 21.0651 21.9657 21.2172 21.9069 21.3592C21.8481 21.5011 21.762 21.6301 21.6533 21.7387C21.5447 21.8474 21.4157 21.9336 21.2737 21.9924C21.1318 22.0512 20.9796 22.0814 20.826 22.0814C20.6723 22.0814 20.5202 22.0512 20.3783 21.9924C20.2363 21.9336 20.1073 21.8474 19.9987 21.7387C19.89 21.6301 19.8039 21.5011 19.7451 21.3592C19.6863 21.2172 19.656 21.0651 19.656 20.9114C19.656 20.6011 19.7793 20.3035 19.9987 20.0841C20.2181 19.8647 20.5157 19.7414 20.826 19.7414C21.1363 19.7414 21.4339 19.8647 21.6533 20.0841C21.8727 20.3035 21.996 20.6011 21.996 20.9114ZM18.096 20.9114C18.096 21.2217 17.9727 21.5193 17.7533 21.7387C17.5339 21.9582 17.2363 22.0814 16.926 22.0814C16.6157 22.0814 16.3181 21.9582 16.0987 21.7387C15.8793 21.5193 15.756 21.2217 15.756 20.9114C15.756 20.6011 15.8793 20.3035 16.0987 20.0841C16.3181 19.8647 16.6157 19.7414 16.926 19.7414C17.2363 19.7414 17.5339 19.8647 17.7533 20.0841C17.9727 20.3035 18.096 20.6011 18.096 20.9114Z" fill="#3B6CF4"/>
</g>
<defs>
<clipPath id="clip0_1397_1406">
<rect width="26" height="26" fill="white"/>
</clipPath>
</defs>
</svg>
