<svg width="36" height="36" viewBox="0 0 36 36" fill="none" xmlns="http://www.w3.org/2000/svg">
<g id="_&#229;&#155;&#190;&#229;&#177;&#130;_1" clip-path="url(#clip0_1397_3467)">
<path id="Vector" d="M21.4763 1.03906H14.1528C13.0167 1.03906 12.0957 1.96992 12.0957 3.11818V10.5199C12.0957 11.6681 13.0167 12.599 14.1528 12.599H21.4763C22.6124 12.599 23.5334 11.6681 23.5334 10.5199V3.11818C23.5334 1.96992 22.6124 1.03906 21.4763 1.03906Z" stroke="#3B6CF4" stroke-width="2" stroke-miterlimit="10"/>
<path id="Vector_2" d="M10.4091 23.4004H3.08571C1.94958 23.4004 1.02856 24.3312 1.02856 25.4795V32.8812C1.02856 34.0295 1.94958 34.9603 3.08571 34.9603H10.4091C11.5453 34.9603 12.4663 34.0295 12.4663 32.8812V25.4795C12.4663 24.3312 11.5453 23.4004 10.4091 23.4004Z" stroke="#3B6CF4" stroke-width="2" stroke-miterlimit="10"/>
<path id="Vector_3" d="M32.9143 23.4004H25.5908C24.4547 23.4004 23.5337 24.3312 23.5337 25.4795V32.8812C23.5337 34.0295 24.4547 34.9603 25.5908 34.9603H32.9143C34.0504 34.9603 34.9714 34.0295 34.9714 32.8812V25.4795C34.9714 24.3312 34.0504 23.4004 32.9143 23.4004Z" stroke="#3B6CF4" stroke-width="2" stroke-miterlimit="10"/>
<path id="Vector_4" d="M17.8149 12.7656V17.558H8.80458C7.67315 17.558 6.74744 18.4832 6.74744 19.6371V23.4003" stroke="#3B6CF4" stroke-width="2" stroke-miterlimit="10"/>
<path id="Vector_5" d="M29.2527 23.4009V19.6377C29.2527 18.4942 28.3372 17.5586 27.1955 17.5586H17.8149" stroke="#3B6CF4" stroke-width="2" stroke-miterlimit="10"/>
</g>
<defs>
<clipPath id="clip0_1397_3467">
<rect width="36" height="36" fill="white"/>
</clipPath>
</defs>
</svg>
